<mxfile host="app.diagrams.net" agent="Mozilla/5.0 (Windows NT 10.0; Win64; x64) AppleWebKit/537.36 (KHTML, like Gecko) Chrome/135.0.0.0 Safari/537.36" version="26.3.0">
  <diagram name="第1頁" id="HInjeSJQUacLZrBBfgWF">
    <mxGraphModel dx="891" dy="392" grid="1" gridSize="10" guides="1" tooltips="1" connect="1" arrows="1" fold="1" page="1" pageScale="1" pageWidth="1169" pageHeight="827" math="0" shadow="1">
      <root>
        <mxCell id="0" />
        <mxCell id="1" parent="0" />
        <mxCell id="w4ze2zyTQ7N1H6BAeW-B-1" value="" style="ellipse;html=1;shape=startState;fillColor=#000000;strokeColor=#ff0000;" parent="1" vertex="1">
          <mxGeometry x="130" y="102.5" width="30" height="30" as="geometry" />
        </mxCell>
        <mxCell id="w4ze2zyTQ7N1H6BAeW-B-3" value="顯示註冊頁面" style="swimlane;childLayout=stackLayout;horizontal=1;startSize=50;horizontalStack=0;rounded=1;fontSize=14;fontStyle=0;strokeWidth=1;resizeParent=0;resizeLast=1;shadow=0;align=center;arcSize=4;whiteSpace=wrap;html=1;" parent="1" vertex="1">
          <mxGeometry x="280" y="300" width="160" height="95" as="geometry" />
        </mxCell>
        <mxCell id="w4ze2zyTQ7N1H6BAeW-B-4" value="&lt;div&gt;&lt;span style=&quot;background-color: transparent; color: light-dark(rgb(0, 0, 0), rgb(255, 255, 255));&quot;&gt;註冊帳號&lt;/span&gt;&lt;/div&gt;&lt;div&gt;註冊密碼&lt;/div&gt;" style="align=left;strokeColor=none;fillColor=none;spacingLeft=4;spacingRight=4;fontSize=12;verticalAlign=top;resizable=0;rotatable=0;part=1;html=1;whiteSpace=wrap;" parent="w4ze2zyTQ7N1H6BAeW-B-3" vertex="1">
          <mxGeometry y="50" width="160" height="45" as="geometry" />
        </mxCell>
        <mxCell id="w4ze2zyTQ7N1H6BAeW-B-5" value="顯示登入頁面" style="swimlane;childLayout=stackLayout;horizontal=1;startSize=50;horizontalStack=0;rounded=1;fontSize=14;fontStyle=0;strokeWidth=1;resizeParent=0;resizeLast=1;shadow=0;dashed=0;align=center;arcSize=4;whiteSpace=wrap;html=1;" parent="1" vertex="1">
          <mxGeometry x="280" y="70" width="160" height="110" as="geometry" />
        </mxCell>
        <mxCell id="w4ze2zyTQ7N1H6BAeW-B-6" value="輸入帳號&lt;br&gt;&lt;div&gt;&lt;span style=&quot;background-color: transparent; color: light-dark(rgb(0, 0, 0), rgb(255, 255, 255));&quot;&gt;輸入&lt;/span&gt;密碼&lt;/div&gt;&lt;div&gt;尚未註冊帳號&lt;/div&gt;" style="align=left;strokeColor=none;fillColor=none;spacingLeft=4;spacingRight=4;fontSize=12;verticalAlign=top;resizable=0;rotatable=0;part=1;html=1;whiteSpace=wrap;" parent="w4ze2zyTQ7N1H6BAeW-B-5" vertex="1">
          <mxGeometry y="50" width="160" height="60" as="geometry" />
        </mxCell>
        <mxCell id="w4ze2zyTQ7N1H6BAeW-B-7" value="" style="ellipse;html=1;shape=endState;fillColor=#000000;strokeColor=#ff0000;" parent="1" vertex="1">
          <mxGeometry x="950" y="102.5" width="30" height="30" as="geometry" />
        </mxCell>
        <mxCell id="w4ze2zyTQ7N1H6BAeW-B-8" value="登入成功" style="rounded=1;arcSize=10;whiteSpace=wrap;html=1;align=center;" parent="1" vertex="1">
          <mxGeometry x="550" y="200" width="100" height="40" as="geometry" />
        </mxCell>
        <mxCell id="w4ze2zyTQ7N1H6BAeW-B-9" value="登入失敗" style="rounded=1;arcSize=10;whiteSpace=wrap;html=1;align=center;" parent="1" vertex="1">
          <mxGeometry x="720" y="97.5" width="100" height="40" as="geometry" />
        </mxCell>
        <mxCell id="w4ze2zyTQ7N1H6BAeW-B-14" value="點擊登入" style="shape=rhombus;perimeter=rhombusPerimeter;whiteSpace=wrap;html=1;align=center;" parent="1" vertex="1">
          <mxGeometry x="540" y="87.5" width="120" height="60" as="geometry" />
        </mxCell>
        <mxCell id="w4ze2zyTQ7N1H6BAeW-B-18" value="" style="endArrow=classic;html=1;rounded=0;exitX=1;exitY=0;exitDx=0;exitDy=0;entryX=0;entryY=0.5;entryDx=0;entryDy=0;" parent="1" source="w4ze2zyTQ7N1H6BAeW-B-6" target="w4ze2zyTQ7N1H6BAeW-B-14" edge="1">
          <mxGeometry width="50" height="50" relative="1" as="geometry">
            <mxPoint x="470" y="200" as="sourcePoint" />
            <mxPoint x="520" y="150" as="targetPoint" />
          </mxGeometry>
        </mxCell>
        <mxCell id="w4ze2zyTQ7N1H6BAeW-B-19" value="" style="endArrow=classic;html=1;rounded=0;exitX=1;exitY=0.5;exitDx=0;exitDy=0;entryX=0;entryY=0.5;entryDx=0;entryDy=0;" parent="1" source="w4ze2zyTQ7N1H6BAeW-B-9" target="w4ze2zyTQ7N1H6BAeW-B-7" edge="1">
          <mxGeometry width="50" height="50" relative="1" as="geometry">
            <mxPoint x="840" y="118.5" as="sourcePoint" />
            <mxPoint x="930" y="119" as="targetPoint" />
          </mxGeometry>
        </mxCell>
        <mxCell id="w4ze2zyTQ7N1H6BAeW-B-21" value="" style="endArrow=classic;html=1;rounded=0;exitX=1;exitY=0.5;exitDx=0;exitDy=0;entryX=0;entryY=0.5;entryDx=0;entryDy=0;" parent="1" source="w4ze2zyTQ7N1H6BAeW-B-14" target="w4ze2zyTQ7N1H6BAeW-B-9" edge="1">
          <mxGeometry width="50" height="50" relative="1" as="geometry">
            <mxPoint x="710" y="182" as="sourcePoint" />
            <mxPoint x="740" y="120" as="targetPoint" />
          </mxGeometry>
        </mxCell>
        <mxCell id="w4ze2zyTQ7N1H6BAeW-B-22" value="" style="endArrow=classic;html=1;rounded=0;entryX=0.5;entryY=0;entryDx=0;entryDy=0;" parent="1" target="w4ze2zyTQ7N1H6BAeW-B-8" edge="1">
          <mxGeometry width="50" height="50" relative="1" as="geometry">
            <mxPoint x="600" y="150" as="sourcePoint" />
            <mxPoint x="570" y="148" as="targetPoint" />
          </mxGeometry>
        </mxCell>
        <mxCell id="w4ze2zyTQ7N1H6BAeW-B-25" value="登入狀態" style="rounded=1;whiteSpace=wrap;html=1;" parent="1" vertex="1">
          <mxGeometry x="540" y="317.5" width="120" height="60" as="geometry" />
        </mxCell>
        <mxCell id="w4ze2zyTQ7N1H6BAeW-B-26" value="" style="endArrow=classic;html=1;rounded=0;exitX=0.5;exitY=1;exitDx=0;exitDy=0;entryX=0.5;entryY=0;entryDx=0;entryDy=0;" parent="1" source="w4ze2zyTQ7N1H6BAeW-B-8" target="w4ze2zyTQ7N1H6BAeW-B-25" edge="1">
          <mxGeometry width="50" height="50" relative="1" as="geometry">
            <mxPoint x="370" y="190" as="sourcePoint" />
            <mxPoint x="370" y="310" as="targetPoint" />
          </mxGeometry>
        </mxCell>
        <mxCell id="w4ze2zyTQ7N1H6BAeW-B-27" value="" style="endArrow=classic;html=1;rounded=0;exitX=1;exitY=0;exitDx=0;exitDy=0;entryX=0;entryY=0.5;entryDx=0;entryDy=0;" parent="1" source="w4ze2zyTQ7N1H6BAeW-B-4" target="w4ze2zyTQ7N1H6BAeW-B-25" edge="1">
          <mxGeometry width="50" height="50" relative="1" as="geometry">
            <mxPoint x="380" y="200" as="sourcePoint" />
            <mxPoint x="380" y="320" as="targetPoint" />
          </mxGeometry>
        </mxCell>
        <mxCell id="w4ze2zyTQ7N1H6BAeW-B-32" value="登出狀態" style="swimlane;childLayout=stackLayout;horizontal=1;startSize=50;horizontalStack=0;rounded=1;fontSize=14;fontStyle=0;strokeWidth=1;resizeParent=0;resizeLast=1;shadow=0;align=center;arcSize=4;whiteSpace=wrap;html=1;" parent="1" vertex="1">
          <mxGeometry x="770" y="307.5" width="160" height="80" as="geometry" />
        </mxCell>
        <mxCell id="w4ze2zyTQ7N1H6BAeW-B-33" value="清除使用者驗證相關資訊" style="align=left;strokeColor=none;fillColor=none;spacingLeft=4;spacingRight=4;fontSize=12;verticalAlign=top;resizable=0;rotatable=0;part=1;html=1;whiteSpace=wrap;" parent="w4ze2zyTQ7N1H6BAeW-B-32" vertex="1">
          <mxGeometry y="50" width="160" height="30" as="geometry" />
        </mxCell>
        <mxCell id="w4ze2zyTQ7N1H6BAeW-B-35" value="" style="endArrow=classic;html=1;rounded=0;exitX=1;exitY=0.5;exitDx=0;exitDy=0;entryX=0.5;entryY=1;entryDx=0;entryDy=0;" parent="1" source="w4ze2zyTQ7N1H6BAeW-B-32" target="w4ze2zyTQ7N1H6BAeW-B-7" edge="1">
          <mxGeometry width="50" height="50" relative="1" as="geometry">
            <mxPoint x="970" y="270" as="sourcePoint" />
            <mxPoint x="960" y="150" as="targetPoint" />
            <Array as="points">
              <mxPoint x="960" y="348" />
            </Array>
          </mxGeometry>
        </mxCell>
        <mxCell id="w4ze2zyTQ7N1H6BAeW-B-36" value="" style="endArrow=classic;html=1;rounded=0;exitX=1;exitY=0.5;exitDx=0;exitDy=0;entryX=0;entryY=0;entryDx=0;entryDy=0;" parent="1" source="w4ze2zyTQ7N1H6BAeW-B-1" target="w4ze2zyTQ7N1H6BAeW-B-6" edge="1">
          <mxGeometry width="50" height="50" relative="1" as="geometry">
            <mxPoint x="150" y="50" as="sourcePoint" />
            <mxPoint x="280" y="50" as="targetPoint" />
          </mxGeometry>
        </mxCell>
        <mxCell id="lsAf-5TxM5xio35Eeppx-8" value="" style="endArrow=classic;html=1;rounded=0;entryX=0;entryY=0.5;entryDx=0;entryDy=0;exitX=1;exitY=0.5;exitDx=0;exitDy=0;" edge="1" parent="1" source="w4ze2zyTQ7N1H6BAeW-B-25" target="w4ze2zyTQ7N1H6BAeW-B-32">
          <mxGeometry relative="1" as="geometry">
            <mxPoint x="500" y="430" as="sourcePoint" />
            <mxPoint x="680" y="430" as="targetPoint" />
            <Array as="points" />
          </mxGeometry>
        </mxCell>
        <mxCell id="lsAf-5TxM5xio35Eeppx-11" value="登出" style="edgeLabel;html=1;align=center;verticalAlign=middle;resizable=0;points=[];" vertex="1" connectable="0" parent="lsAf-5TxM5xio35Eeppx-8">
          <mxGeometry x="-0.0074" y="-1" relative="1" as="geometry">
            <mxPoint x="-5" y="-1" as="offset" />
          </mxGeometry>
        </mxCell>
        <mxCell id="lsAf-5TxM5xio35Eeppx-12" value="" style="endArrow=classic;html=1;rounded=0;exitX=0.5;exitY=1;exitDx=0;exitDy=0;entryX=0.5;entryY=0;entryDx=0;entryDy=0;" edge="1" parent="1">
          <mxGeometry relative="1" as="geometry">
            <mxPoint x="359.5" y="180" as="sourcePoint" />
            <mxPoint x="359.5" y="300" as="targetPoint" />
            <Array as="points" />
          </mxGeometry>
        </mxCell>
        <mxCell id="lsAf-5TxM5xio35Eeppx-13" value="註冊" style="edgeLabel;html=1;align=center;verticalAlign=middle;resizable=0;points=[];" vertex="1" connectable="0" parent="lsAf-5TxM5xio35Eeppx-12">
          <mxGeometry x="-0.0074" y="-1" relative="1" as="geometry">
            <mxPoint x="2" as="offset" />
          </mxGeometry>
        </mxCell>
      </root>
    </mxGraphModel>
  </diagram>
</mxfile>
